# xmcd
#
# Track frame offsets:
#	151
#	16266
#	32187
#	47990
#	61981
#	78582
#	92067
#	104276
#	115965
#	126690
#	142735
#	156624
#	176481
#	201266
#	224695
#	238790
#	252619
#	267254
#	279859
#	291064
#
# Disc length: 4007 seconds
#
# Revision: 0
# Processed by: cddbd v1.5.1PL0 Copyright (c) Steve Scherf et al.
# Submitted via: dBpowerAMP V4.0
#
DISCID=370fa514
DTITLE=Marilyn Monroe - DIAMONDS ARE A GIRL'S BEST FRIEND
DYEAR=1900
DGENRE=Comédies
TTITLE0=Diamond's are a girl's best friend
TTITLE1=Bye bye baby
TTITLE2=When love goes wrong, nothing goes right
TTITLE3=You'd be surprised
TTITLE4=After you get what you want, you don't want it
TTITLE5=I wanna be loved by you
TTITLE6=I'm gonna file my claim
TTITLE7=I'm through with love
TTITLE8=A fine romance
TTITLE9=Specialization
TTITLE10=When I fall in love
TTITLE11=Heatwave
TTITLE12=Lazy
TTITLE13=My heart belongs to Daddy
TTITLE14=Two little girls from Little Rock
TTITLE15=Kiss
TTITLE16=Do it again
TTITLE17=She acts like a woman should
TTITLE18=Down in the meadow
TTITLE19=One silver dollar
EXTD=
EXTT0=
EXTT1=
EXTT2=
EXTT3=
EXTT4=
EXTT5=
EXTT6=
EXTT7=
EXTT8=
EXTT9=
EXTT10=
EXTT11=
EXTT12=
EXTT13=
EXTT14=
EXTT15=
EXTT16=
EXTT17=
EXTT18=
EXTT19=
PLAYORDER=
